<?xml version="1.0" encoding="UTF-8"?>
<svg xmlns="http://www.w3.org/2000/svg" xmlns:xlink="http://www.w3.org/1999/xlink" width="22pt" height="22pt" viewBox="0 0 22 22" version="1.1">
<g id="surface1">
<path style=" stroke:none;fill-rule:nonzero;fill:rgb(0%,0%,0%);fill-opacity:1;" d="M 18.777344 3.21875 C 14.480469 -1.074219 7.515625 -1.074219 3.21875 3.222656 C -1.074219 7.519531 -1.074219 14.484375 3.222656 18.78125 C 7.519531 23.074219 14.484375 23.074219 18.78125 18.777344 C 20.84375 16.714844 22 13.914062 22 10.996094 C 22 8.082031 20.839844 5.28125 18.777344 3.21875 Z M 16.660156 15.324219 C 16.660156 15.324219 16.65625 15.324219 16.65625 15.324219 L 16.65625 15.320312 L 16.101562 15.875 C 15.378906 16.605469 14.328125 16.90625 13.332031 16.667969 C 12.328125 16.398438 11.371094 15.96875 10.5 15.398438 C 9.691406 14.882812 8.945312 14.277344 8.269531 13.597656 C 7.644531 12.980469 7.085938 12.300781 6.601562 11.574219 C 6.066406 10.789062 5.644531 9.9375 5.347656 9.035156 C 5.003906 7.980469 5.289062 6.820312 6.078125 6.039062 L 6.730469 5.386719 C 6.914062 5.207031 7.207031 5.203125 7.390625 5.386719 L 9.453125 7.449219 C 9.636719 7.628906 9.636719 7.925781 9.453125 8.105469 C 9.453125 8.105469 9.453125 8.109375 9.453125 8.109375 L 8.242188 9.316406 C 7.894531 9.660156 7.851562 10.207031 8.140625 10.601562 C 8.578125 11.203125 9.0625 11.765625 9.589844 12.292969 C 10.175781 12.882812 10.8125 13.417969 11.496094 13.894531 C 11.890625 14.167969 12.421875 14.121094 12.761719 13.785156 L 13.933594 12.597656 C 14.113281 12.414062 14.410156 12.414062 14.59375 12.59375 C 14.59375 12.59375 14.59375 12.597656 14.59375 12.597656 L 16.65625 14.664062 C 16.839844 14.847656 16.839844 15.140625 16.660156 15.324219 Z M 16.660156 15.324219 "/>
</g>
</svg>
